<svg xmlns="http://www.w3.org/2000/svg" style="display:none">
    <symbol id="account_balance_wallet" viewBox="0 0 24 24">
        <path d="M3 7.5A2.5 2.5 0 0 1 5.5 5h10A2.5 2.5 0 0 1 18 7.5V9h1.5A1.5 1.5 0 0 1 21 10.5v6a1.5 1.5 0 0 1-1.5 1.5H5.5A2.5 2.5 0 0 1 3 15.5z"/>
        <path d="M18 9H7a2 2 0 1 1 0-4"/>
        <circle cx="17.5" cy="13.5" r="1"/>
    </symbol>
    <symbol id="add" viewBox="0 0 24 24">
        <path d="M12 5v14M5 12h14"/>
    </symbol>
    <symbol id="badge" viewBox="0 0 24 24">
        <path d="M7 5h10a2 2 0 0 1 2 2v8a2 2 0 0 1-2 2H7a2 2 0 0 1-2-2V7a2 2 0 0 1 2-2z"/>
        <path d="M9 10h6M9 13h4"/>
        <circle cx="16.5" cy="16.5" r="2.5"/>
    </symbol>
    <symbol id="calendar_today" viewBox="0 0 24 24">
        <path d="M7 4v3M17 4v3M4 9h16"/>
        <rect x="4" y="5.5" width="16" height="14.5" rx="2"/>
    </symbol>
    <symbol id="cancel" viewBox="0 0 24 24">
        <circle cx="12" cy="12" r="9"/>
        <path d="M9 9l6 6M15 9l-6 6"/>
    </symbol>
    <symbol id="check" viewBox="0 0 24 24">
        <path d="M5 12.5l4.2 4.2L19 7"/>
    </symbol>
    <symbol id="check_circle" viewBox="0 0 24 24">
        <circle cx="12" cy="12" r="9"/>
        <path d="M8 12.5l2.8 2.8L16.5 9"/>
    </symbol>
    <symbol id="chevron_left" viewBox="0 0 24 24">
        <path d="M14.5 6.5L9 12l5.5 5.5"/>
    </symbol>
    <symbol id="chevron_right" viewBox="0 0 24 24">
        <path d="M9.5 6.5L15 12l-5.5 5.5"/>
    </symbol>
    <symbol id="close" viewBox="0 0 24 24">
        <path d="M6 6l12 12M18 6L6 18"/>
    </symbol>
    <symbol id="corporate_fare" viewBox="0 0 24 24">
        <path d="M4 20h16"/>
        <path d="M6 20V7l6-3 6 3v13"/>
        <path d="M9 9h2M9 12h2M13 9h2M13 12h2M11 20v-4h2v4"/>
    </symbol>
    <symbol id="dashboard" viewBox="0 0 24 24">
        <rect x="4" y="4" width="7" height="7" rx="1.5"/>
        <rect x="13" y="4" width="7" height="5" rx="1.5"/>
        <rect x="4" y="13" width="7" height="7" rx="1.5"/>
        <rect x="13" y="11" width="7" height="9" rx="1.5"/>
    </symbol>
    <symbol id="domain" viewBox="0 0 24 24">
        <path d="M3 20h18"/>
        <path d="M5 20V6h14v14"/>
        <path d="M8 9h2M8 12h2M8 15h2M14 9h2M14 12h2M14 15h2"/>
    </symbol>
    <symbol id="download" viewBox="0 0 24 24">
        <path d="M12 4v10"/>
        <path d="M8.5 10.5L12 14l3.5-3.5"/>
        <path d="M5 18h14"/>
    </symbol>
    <symbol id="error" viewBox="0 0 24 24">
        <circle cx="12" cy="12" r="9"/>
        <path d="M12 8v5"/>
        <circle cx="12" cy="16.5" r="0.75"/>
    </symbol>
    <symbol id="event_available" viewBox="0 0 24 24">
        <path d="M7 4v3M17 4v3M4 9h16"/>
        <rect x="4" y="5.5" width="16" height="14.5" rx="2"/>
        <path d="M9 13l2 2 4-4"/>
    </symbol>
    <symbol id="expand_more" viewBox="0 0 24 24">
        <path d="M6.5 9.5L12 15l5.5-5.5"/>
    </symbol>
    <symbol id="fact_check" viewBox="0 0 24 24">
        <rect x="5" y="4" width="14" height="16" rx="2"/>
        <path d="M9 9l1.5 1.5L13 8M9 13l1.5 1.5L13 12M14.5 9H16M14.5 13H16"/>
    </symbol>
    <symbol id="file_download" viewBox="0 0 24 24">
        <path d="M8 4h6l4 4v10a2 2 0 0 1-2 2H8a2 2 0 0 1-2-2V6a2 2 0 0 1 2-2z"/>
        <path d="M14 4v4h4"/>
        <path d="M12 10v5M9.5 12.5L12 15l2.5-2.5"/>
    </symbol>
    <symbol id="filter_list" viewBox="0 0 24 24">
        <path d="M5 7h14M8 12h8M11 17h2"/>
    </symbol>
    <symbol id="flight_takeoff" viewBox="0 0 24 24">
        <path d="M3 18h18"/>
        <path d="M4 14l7-2 3-6 2 1-1 5 4 2v2z"/>
    </symbol>
    <symbol id="group_off" viewBox="0 0 24 24">
        <circle cx="9" cy="9" r="2.5"/>
        <circle cx="16" cy="8" r="2"/>
        <path d="M4.5 18a4.5 4.5 0 0 1 9 0M13 18a3.5 3.5 0 0 1 5 0"/>
        <path d="M4 4l16 16"/>
    </symbol>
    <symbol id="groups" viewBox="0 0 24 24">
        <circle cx="9" cy="9" r="2.5"/>
        <circle cx="16" cy="8.5" r="2"/>
        <path d="M4.5 18a4.5 4.5 0 0 1 9 0M13 17.5a3.5 3.5 0 0 1 6 0"/>
    </symbol>
    <symbol id="history" viewBox="0 0 24 24">
        <path d="M4 12a8 8 0 1 0 2.3-5.6"/>
        <path d="M4 5v5h5"/>
        <path d="M12 8v4l2.5 1.5"/>
    </symbol>
    <symbol id="icon" viewBox="0 0 24 24">
        <rect x="5" y="5" width="14" height="14" rx="3"/>
    </symbol>
    <symbol id="info" viewBox="0 0 24 24">
        <circle cx="12" cy="12" r="9"/>
        <path d="M12 11.5v4"/>
        <circle cx="12" cy="8" r="0.75"/>
    </symbol>
    <symbol id="logout" viewBox="0 0 24 24">
        <path d="M10 6H6a2 2 0 0 0-2 2v8a2 2 0 0 0 2 2h4"/>
        <path d="M13 8l4 4-4 4"/>
        <path d="M9 12h8"/>
    </symbol>
    <symbol id="notifications" viewBox="0 0 24 24">
        <path d="M6 16.5h12l-1.5-2v-3.5a4.5 4.5 0 1 0-9 0v3.5z"/>
        <path d="M10 18a2 2 0 0 0 4 0"/>
    </symbol>
    <symbol id="pending_actions" viewBox="0 0 24 24">
        <rect x="5" y="4" width="10" height="16" rx="2"/>
        <circle cx="17.5" cy="14.5" r="3.5"/>
        <path d="M9 8h4M9 11h4M17.5 12.8v1.9l1.3.8"/>
    </symbol>
    <symbol id="person_add" viewBox="0 0 24 24">
        <circle cx="10" cy="8" r="3"/>
        <path d="M4.5 18a5.5 5.5 0 0 1 11 0"/>
        <path d="M18 8v6M15 11h6"/>
    </symbol>
    <symbol id="person_off" viewBox="0 0 24 24">
        <circle cx="11" cy="8" r="3"/>
        <path d="M5 18a6 6 0 0 1 12 0"/>
        <path d="M4 4l16 16"/>
    </symbol>
    <symbol id="person_remove" viewBox="0 0 24 24">
        <circle cx="10" cy="8" r="3"/>
        <path d="M4.5 18a5.5 5.5 0 0 1 11 0"/>
        <path d="M15 11h6"/>
    </symbol>
    <symbol id="person_search" viewBox="0 0 24 24">
        <circle cx="10" cy="8" r="3"/>
        <path d="M4.5 18a5.5 5.5 0 0 1 8.5-4.6"/>
        <circle cx="17.5" cy="15.5" r="2.5"/>
        <path d="M19.2 17.2L21 19"/>
    </symbol>
    <symbol id="rate_review" viewBox="0 0 24 24">
        <path d="M5 6.5A2.5 2.5 0 0 1 7.5 4h9A2.5 2.5 0 0 1 19 6.5v6A2.5 2.5 0 0 1 16.5 15H10l-4 4v-4.5A2.5 2.5 0 0 1 5 12.5z"/>
        <path d="M12 7.5l.9 1.9 2.1.3-1.5 1.5.3 2.1-1.8-1-1.8 1 .3-2.1-1.5-1.5 2.1-.3z"/>
    </symbol>
    <symbol id="remove" viewBox="0 0 24 24">
        <circle cx="12" cy="12" r="9"/>
        <path d="M8 12h8"/>
    </symbol>
    <symbol id="schedule" viewBox="0 0 24 24">
        <circle cx="12" cy="12" r="9"/>
        <path d="M12 7.5v5l3 1.8"/>
    </symbol>
    <symbol id="search" viewBox="0 0 24 24">
        <circle cx="11" cy="11" r="5.5"/>
        <path d="M16 16l4 4"/>
    </symbol>
    <symbol id="sort" viewBox="0 0 24 24">
        <path d="M7 6v12M7 18l-2.5-2.5M7 18l2.5-2.5M17 18V6M17 6l-2.5 2.5M17 6l2.5 2.5"/>
    </symbol>
    <symbol id="swap_horiz" viewBox="0 0 24 24">
        <path d="M7 8h10M13.5 4.5L17 8l-3.5 3.5M17 16H7M10.5 12.5L7 16l3.5 3.5"/>
    </symbol>
    <symbol id="task_alt" viewBox="0 0 24 24">
        <circle cx="12" cy="12" r="9"/>
        <path d="M8 12.5l2.5 2.5L16 9"/>
    </symbol>
    <symbol id="trending_up" viewBox="0 0 24 24">
        <path d="M4 16l6-6 4 4 6-7"/>
        <path d="M15 7h5v5"/>
    </symbol>
</svg>
